PathFileType	4	(X/Y/Z)	0331.trc
DataRate	CameraRate	NumFrames	NumMarkers	Units	OrigDataRate	OrigDataStartFrame	OrigNumFrames
120	120	4	27	m	120	1	1006
Frame#	Time	RHip			RKnee			RAnkle			RBigToe			RSmallToe			RHeel			LHip			LKnee			LAnkle			LBigToe			LSmallToe			LHeel			Nose			REye			LEye			RShoulder			RElbow			RWrist			RThumb			RIndex			RPinky			LShoulder			LElbow			LWrist			LThumb			LIndex			LPinky		
		X	Y	Z	X	Y	Z	X	Y	Z	X	Y	Z	X	Y	Z	X	Y	Z	X	Y	Z	X	Y	Z	X	Y	Z	X	Y	Z	X	Y	Z	X	Y	Z	X	Y	Z	X	Y	Z	X	Y	Z	X	Y	Z	X	Y	Z	X	Y	Z	X	Y	Z	X	Y	Z	X	Y	Z	X	Y	Z	X	Y	Z	X	Y	Z	X	Y	Z	X	Y	Z	X	Y	Z
4	0.0333333333333333	0.0346334690219565	0.2100405918007951	0.8948686764272423	0.0040432316256855	0.2182538688742188	0.4876885676836091	-0.0339950294912416	0.2648870904397428	0.0866235578632921	-0.0445654396327677	0.0789629100451954	0.0211592583848014	-0.0779239373954893	0.1072888802685902	0.03044456246	-0.0309933226791581	0.2993956421191133	0.0311421022330764	0.2603355953619014	0.2143755793025516	0.8939129136407274	0.272843244803406	0.2229637274076666	0.4773595241789736	0.2979750527575273	0.2927304583190938	0.0830410541673963	0.3182371428029671	0.0855495931840929	0.0174322593722305	0.3524793409202501	0.13031763466353	0.0175639105135229	0.2922213554228729	0.3230824649982616	0.0303696102486885	0.1419252943963279	0.077640040277649	1.59946540043285	0.1155048295710969	0.0878927611557402	1.6284129150821878	0.1669730117306876	0.0978248506756932	1.6326134484922328	-0.0227098833596617	0.2265836896257156	1.4206058626210818	-0.2845090192723882	0.206321995358948	1.4124078452080573	-0.5387436176012341	0.1624930713753644	1.4196218867936143	-0.6103484493392408	0.1282019487044814	1.4050783324085891	-0.6451091819133072	0.1397014929439804	1.4223259403627917	-0.6258790021988759	0.1660520998487084	1.4108286370228822	0.3404879137944929	0.2422292654542526	1.4246602757271567	0.6016725142936533	0.2229789521401047	1.3927082602725929	0.8528519812133506	0.1855928892618872	1.3655286828230184	0.9094573428982884	0.1629763853901304	1.363654712727878	0.951358985474597	0.171220059423225	1.3707670728190968	0.947685029812766	0.1911683894391263	1.3468590183891138
5	0.0416666666666666	0.0340930236811771	0.2128373073669275	0.8963879106109809	0.0022437035390388	0.2199158492187908	0.4867217613782039	-0.0356390998172015	0.2654883963161169	0.0853549105132152	-0.0421669333091225	0.0736792388233516	0.0205828062787071	-0.0780347963648364	0.105540344844	0.0280296089558116	-0.0345002032153607	0.3018492756864109	0.0290057448994656	0.2601453547701566	0.217724943876224	0.8961212087930301	0.2735398131675261	0.2213090767990459	0.4786210440820903	0.3007985315157178	0.2895688025784889	0.0813365937889364	0.3178282695450832	0.0852201523631393	0.0171320675888815	0.3502975270452839	0.128739437180053	0.0187187855766857	0.2929710462412511	0.3214517399010342	0.0280543135547936	0.1411501806342696	0.0752421461764605	1.598586837417427	0.1170925149907426	0.0871266013536307	1.6275958791326088	0.1664961329049251	0.0953892798378278	1.6302547328168406	-0.0245165642583636	0.2287621583754685	1.4212620849729158	-0.2854332842269251	0.205689625147686	1.4124910567657711	-0.5352961407497687	0.1591611442811317	1.419692298122548	-0.6020871719771742	0.1184336070197796	1.4060877934738274	-0.6406797846537637	0.1305768747433726	1.4240994370892197	-0.6282002554392154	0.1655190998034261	1.4137037912700563	0.339840076953266	0.2444527086091318	1.4251709003871176	0.6003083266846498	0.2222973652744635	1.3940107832402984	0.851726948208715	0.1859816898989509	1.3659231828633451	0.9126872574170608	0.159818857732352	1.3625559682547983	0.9528906796907411	0.1690338826523969	1.3696828871854907	0.9466359561745836	0.1887527179878698	1.3488654638764177
6	0.05	0.0336877094810588	0.2148967957616643	0.8975339735960072	0.0008662658032554	0.2211513979347463	0.48606934694598	-0.0368668070229158	0.2659110501306608	0.084414243086719	-0.0403544149418541	0.0697792190123273	0.0201690100324613	-0.0780761376362073	0.1042257477651413	0.0262307286656747	-0.0370591056768481	0.303637018445758	0.0274349169540533	0.2599757037809176	0.2202214515613342	0.8977836510864523	0.2740484792074996	0.2200540204196451	0.4795639463078596	0.3028533657024411	0.2871922404268515	0.0800678073420051	0.3174922457301796	0.0849395143105252	0.016910024011044	0.3486707665249467	0.127549890295325	0.0195679963426657	0.2934888732011757	0.3201714981290218	0.0263350828444952	0.1406222045251	0.0734489627422076	1.5979301849066745	0.118314777942705	0.0865486179357081	1.6269885645831612	0.1662091500676508	0.0935784265064155	1.6284874010886876	-0.0259380193237291	0.2304302070610881	1.4217557936303926	-0.2861502090986428	0.2052349287850786	1.4125760384861477	-0.5326973965995286	0.1566382669800972	1.4197560124307236	-0.595827037453816	0.1110185013109456	1.4068661424544375	-0.6372897657827443	0.1236479771739803	1.4254647997763628	-0.6298499733418862	0.1650032133829758	1.4158508944744146	0.3393732921498513	0.246072701750477	1.4255499461804826	0.5992841704476538	0.2217225849817013	1.3949868975430573	0.8509272105815578	0.1863034152593027	1.3662262509430625	0.915094046314252	0.157534671205242	1.3617116849488746	0.9540940963854035	0.1674243257347996	1.3688454895506208	0.9459191309930643	0.1869458067906161	1.3503529321937122
7	0.0583333333333333	0.033400118411164	0.2163217010179856	0.8983519833756898	-0.000138780229956	0.2220154879255904	0.4857036485913659	-0.0377349148943989	0.2661788405014026	0.0837620452351254	-0.0390585250078242	0.06707858302934	0.0198990441962747	-0.0780491850922808	0.1032760649081498	0.0249746982446944	-0.0387905108254536	0.3048290531677508	0.0263571354417478	0.2598288127764002	0.2219745864236729	0.8989605261503142	0.2743929121427185	0.2191551138735851	0.4802249967738071	0.3042241222850937	0.2855151164579291	0.0791831147576166	0.3172075916767519	0.0847015634553005	0.0167572642204389	0.3475220488170966	0.1267113544999765	0.0201448511071798	0.2937900530856773	0.3192138366094676	0.02514809936304	0.1402993137318254	0.0721841259046487	1.5974787705571578	0.1192117420333378	0.086138996846896	1.6265675788495635	0.1660875539697848	0.092314867774899	1.627242287400145	-0.0270235141031801	0.2316347082639721	1.4220966446542798	-0.2867026513527757	0.2049222376694801	1.4126582290947929	-0.5308579518256951	0.1548455470005483	1.4198163775704404	-0.5913640594434518	0.105717044889104	1.4074466115787163	-0.6348445445831059	0.1186882733599178	1.4264638741141735	-0.6309353633287937	0.1645315566433949	1.4173497302005345	0.3390551431126252	0.2471556988446963	1.425812286087165	0.5985641348000841	0.2212643003412374	1.3956668316309666	0.8503984633959698	0.1865752245651067	1.3664483648618515	0.9167641206353876	0.1560312990586584	1.3610895067639694	0.9549913489682632	0.1663399312674742	1.3682239400675225	0.9455014292541674	0.1856879363870768	1.351387747761044
